<svg width="21" height="18" viewBox="0 0 21 18" fill="none" xmlns="http://www.w3.org/2000/svg">
<path fill-rule="evenodd" clip-rule="evenodd" d="M20.5 11.4286C20.5 10.9453 20.2743 10.482 19.8721 10.1408C19.6733 9.97157 19.4371 9.83731 19.1772 9.74573C18.9172 9.65416 18.6385 9.60706 18.3571 9.60714H13.3571C12.7886 9.60714 12.2436 9.799 11.8421 10.1408C11.643 10.3098 11.4851 10.5106 11.3773 10.7315C11.2696 10.9525 11.2142 11.1894 11.2143 11.4286V15.6786C11.2143 16.1619 11.44 16.6251 11.8421 16.9663C12.041 17.1356 12.2772 17.2698 12.5371 17.3614C12.7971 17.453 13.0757 17.5001 13.3571 17.5H18.3571C18.9257 17.5 19.4707 17.3081 19.8721 16.9663C20.0713 16.7973 20.2292 16.5966 20.337 16.3756C20.4447 16.1546 20.5001 15.9178 20.5 15.6786V11.4286ZM9.78571 11.4286C9.78571 10.9453 9.56 10.482 9.15786 10.1408C8.95901 9.97157 8.72285 9.83731 8.46289 9.74573C8.20292 9.65416 7.92426 9.60706 7.64286 9.60714H2.64286C2.07429 9.60714 1.52929 9.799 1.12786 10.1408C0.928734 10.3098 0.770783 10.5106 0.663047 10.7315C0.555311 10.9525 0.499905 11.1894 0.5 11.4286V15.6786C0.5 16.1619 0.725714 16.6251 1.12786 16.9663C1.3267 17.1356 1.56286 17.2698 1.82283 17.3614C2.08279 17.453 2.36145 17.5001 2.64286 17.5H7.64286C8.21143 17.5 8.75643 17.3081 9.15786 16.9663C9.35698 16.7973 9.51493 16.5966 9.62267 16.3756C9.7304 16.1546 9.78581 15.9178 9.78571 15.6786V11.4286ZM19.0714 11.4286V15.6786C19.0717 15.7584 19.0534 15.8374 19.0176 15.9112C18.9818 15.985 18.9292 16.052 18.8629 16.1084C18.7965 16.1649 18.7176 16.2096 18.6308 16.24C18.544 16.2704 18.451 16.286 18.3571 16.2857H13.3571C13.2633 16.286 13.1703 16.2704 13.0835 16.24C12.9967 16.2096 12.9178 16.1649 12.8514 16.1084C12.7851 16.052 12.7324 15.985 12.6967 15.9112C12.6609 15.8374 12.6426 15.7584 12.6429 15.6786V11.4286C12.6426 11.3488 12.6609 11.2697 12.6967 11.1959C12.7324 11.1222 12.7851 11.0551 12.8514 10.9987C12.9178 10.9423 12.9967 10.8976 13.0835 10.8672C13.1703 10.8367 13.2633 10.8212 13.3571 10.8214H18.3571C18.451 10.8212 18.544 10.8367 18.6308 10.8672C18.7176 10.8976 18.7965 10.9423 18.8629 10.9987C18.9292 11.0551 18.9818 11.1222 19.0176 11.1959C19.0534 11.2697 19.0717 11.3488 19.0714 11.4286ZM8.35714 11.4286V15.6786C8.35743 15.7584 8.33914 15.8374 8.30335 15.9112C8.26755 15.985 8.21495 16.052 8.14856 16.1084C8.08218 16.1649 8.00333 16.2096 7.91654 16.24C7.82975 16.2704 7.73674 16.286 7.64286 16.2857H2.64286C2.54898 16.286 2.45597 16.2704 2.36918 16.24C2.28239 16.2096 2.20353 16.1649 2.13715 16.1084C2.07077 16.052 2.01816 15.985 1.98237 15.9112C1.94657 15.8374 1.92829 15.7584 1.92857 15.6786V11.4286C1.92829 11.3488 1.94657 11.2697 1.98237 11.1959C2.01816 11.1222 2.07077 11.0551 2.13715 10.9987C2.20353 10.9423 2.28239 10.8976 2.36918 10.8672C2.45597 10.8367 2.54898 10.8212 2.64286 10.8214H7.64286C7.73674 10.8212 7.82975 10.8367 7.91654 10.8672C8.00333 10.8976 8.08218 10.9423 8.14856 10.9987C8.21495 11.0551 8.26755 11.1222 8.30335 11.1959C8.33914 11.2697 8.35743 11.3488 8.35714 11.4286ZM9.78571 2.32143C9.78571 1.83814 9.56 1.37489 9.15786 1.03368C8.95901 0.864424 8.72285 0.730166 8.46289 0.63859C8.20292 0.547014 7.92426 0.499919 7.64286 0.5H2.64286C2.07429 0.5 1.52929 0.691857 1.12786 1.03368C0.928734 1.2027 0.770783 1.40343 0.663047 1.6244C0.555311 1.84537 0.499905 2.08223 0.5 2.32143V6.57143C0.5 7.05471 0.725714 7.51796 1.12786 7.85918C1.3267 8.02843 1.56286 8.16269 1.82283 8.25427C2.08279 8.34584 2.36145 8.39294 2.64286 8.39286H7.64286C8.21143 8.39286 8.75643 8.201 9.15786 7.85918C9.35698 7.69016 9.51493 7.48942 9.62267 7.26845C9.7304 7.04748 9.78581 6.81062 9.78571 6.57143V2.32143ZM20.5 2.32143C20.5 1.83814 20.2743 1.37489 19.8721 1.03368C19.6733 0.864424 19.4371 0.730166 19.1772 0.63859C18.9172 0.547014 18.6385 0.499919 18.3571 0.5H13.3571C12.7886 0.5 12.2436 0.691857 11.8421 1.03368C11.643 1.2027 11.4851 1.40343 11.3773 1.6244C11.2696 1.84537 11.2142 2.08223 11.2143 2.32143V6.57143C11.2143 7.05471 11.44 7.51796 11.8421 7.85918C12.041 8.02843 12.2772 8.16269 12.5371 8.25427C12.7971 8.34584 13.0757 8.39294 13.3571 8.39286H18.3571C18.9257 8.39286 19.4707 8.201 19.8721 7.85918C20.0713 7.69016 20.2292 7.48942 20.337 7.26845C20.4447 7.04748 20.5001 6.81062 20.5 6.57143V2.32143ZM8.35714 2.32143V6.57143C8.35743 6.65123 8.33914 6.73029 8.30335 6.80406C8.26755 6.87783 8.21495 6.94485 8.14856 7.00128C8.08218 7.05771 8.00333 7.10242 7.91654 7.13285C7.82975 7.16327 7.73674 7.17881 7.64286 7.17857H2.64286C2.54898 7.17881 2.45597 7.16327 2.36918 7.13285C2.28239 7.10242 2.20353 7.05771 2.13715 7.00128C2.07077 6.94485 2.01816 6.87783 1.98237 6.80406C1.94657 6.73029 1.92829 6.65123 1.92857 6.57143V2.32143C1.92829 2.24163 1.94657 2.16257 1.98237 2.0888C2.01816 2.01503 2.07077 1.948 2.13715 1.89158C2.20353 1.83515 2.28239 1.79044 2.36918 1.76001C2.45597 1.72959 2.54898 1.71405 2.64286 1.71429H7.64286C7.73674 1.71405 7.82975 1.72959 7.91654 1.76001C8.00333 1.79044 8.08218 1.83515 8.14856 1.89158C8.21495 1.948 8.26755 2.01503 8.30335 2.0888C8.33914 2.16257 8.35743 2.24163 8.35714 2.32143ZM19.0714 2.32143V6.57143C19.0717 6.65123 19.0534 6.73029 19.0176 6.80406C18.9818 6.87783 18.9292 6.94485 18.8629 7.00128C18.7965 7.05771 18.7176 7.10242 18.6308 7.13285C18.544 7.16327 18.451 7.17881 18.3571 7.17857H13.3571C13.2633 7.17881 13.1703 7.16327 13.0835 7.13285C12.9967 7.10242 12.9178 7.05771 12.8514 7.00128C12.7851 6.94485 12.7324 6.87783 12.6967 6.80406C12.6609 6.73029 12.6426 6.65123 12.6429 6.57143V2.32143C12.6426 2.24163 12.6609 2.16257 12.6967 2.0888C12.7324 2.01503 12.7851 1.948 12.8514 1.89158C12.9178 1.83515 12.9967 1.79044 13.0835 1.76001C13.1703 1.72959 13.2633 1.71405 13.3571 1.71429H18.3571C18.451 1.71405 18.544 1.72959 18.6308 1.76001C18.7176 1.79044 18.7965 1.83515 18.8629 1.89158C18.9292 1.948 18.9818 2.01503 19.0176 2.0888C19.0534 2.16257 19.0717 2.24163 19.0714 2.32143Z" fill="#1985F1"/>
</svg>
