<svg width="23" height="17" viewBox="0 0 23 17" fill="none" xmlns="http://www.w3.org/2000/svg">
<path fill-rule="evenodd" clip-rule="evenodd" d="M7.80278 8.5C7.80278 6.24722 9.70276 4.5 11.9467 4.5C14.1907 4.5 16.0906 6.24722 16.0906 8.5C16.0906 10.7528 14.1907 12.5 11.9467 12.5C9.70276 12.5 7.80278 10.7528 7.80278 8.5ZM11.9467 6.5C10.718 6.5 9.80278 7.43907 9.80278 8.5C9.80278 9.56093 10.718 10.5 11.9467 10.5C13.1754 10.5 14.0906 9.56093 14.0906 8.5C14.0906 7.43907 13.1754 6.5 11.9467 6.5Z" fill="#F27F18"/>
<path fill-rule="evenodd" clip-rule="evenodd" d="M0.997441 8.18731C2.47191 3.70774 6.83614 0.5 11.9473 0.5C17.0585 0.5 21.4227 3.70778 22.8972 8.18739L23.0001 8.50004L22.8972 8.81269C21.4227 13.2923 17.0585 16.5 11.9473 16.5C6.83614 16.5 2.47189 13.2922 0.997439 8.81261L0.894531 8.49996L0.997441 8.18731ZM3.00682 8.49997C4.30099 11.9745 7.79705 14.5 11.9473 14.5C16.0976 14.5 19.5936 11.9745 20.8878 8.50003C19.5936 5.02551 16.0976 2.5 11.9473 2.5C7.79705 2.5 4.30101 5.02548 3.00682 8.49997Z" fill="#F27F18"/>
</svg>
