<svg width="172" height="68" viewBox="0 0 172 68" fill="none" xmlns="http://www.w3.org/2000/svg">
<path d="M8.89032 0.5H0.5V29.338H7.40968V10.5447L12.8387 22.6955H17.7742L23.2032 10.5447V25.6117L30.4419 14.595V0.5H21.8871L15.471 14.919L8.89032 0.5Z" fill="#1985F1"/>
<path d="M37.6806 9.2486L43.1097 0.5H51.3355L41.7935 15.081L51.5 29.5H42.9452L37.3516 20.2654L31.429 29.5H23.5323L32.9097 15.081V1.47207L37.6806 9.2486Z" fill="#18191B"/>
<path d="M2.65199 37.6818H7.48864L13.9659 53.4915H14.2216L20.6989 37.6818H25.5355V59.5H21.7429V44.5107H21.5405L15.5107 59.4361H12.6768L6.64702 44.4787H6.4446V59.5H2.65199V37.6818ZM34.3778 59.8303C33.3409 59.8303 32.407 59.6456 31.576 59.2763C30.7521 58.8999 30.0987 58.3459 29.6158 57.6143C29.1399 56.8828 28.902 55.9808 28.902 54.9084C28.902 53.9851 29.0724 53.2216 29.4134 52.6179C29.7543 52.0142 30.2195 51.5312 30.8089 51.169C31.3984 50.8068 32.0625 50.5334 32.8011 50.3487C33.5469 50.157 34.3175 50.0185 35.1129 49.9332C36.0717 49.8338 36.8494 49.745 37.446 49.6669C38.0426 49.5817 38.4759 49.4538 38.7457 49.2834C39.0227 49.1058 39.1612 48.8324 39.1612 48.4631V48.3991C39.1612 47.5966 38.9233 46.9751 38.4474 46.5348C37.9716 46.0945 37.2862 45.8743 36.3913 45.8743C35.4467 45.8743 34.6974 46.0803 34.1435 46.4922C33.5966 46.9041 33.2273 47.3906 33.0355 47.9517L29.4347 47.4403C29.7188 46.446 30.1875 45.6151 30.8409 44.9474C31.4943 44.2727 32.2933 43.7685 33.2379 43.4347C34.1825 43.0938 35.2266 42.9233 36.37 42.9233C37.1584 42.9233 37.9432 43.0156 38.7244 43.2003C39.5057 43.3849 40.2195 43.6903 40.8658 44.1165C41.5121 44.5355 42.0305 45.1072 42.4212 45.8317C42.8189 46.5561 43.0178 47.4616 43.0178 48.5483V59.5H39.3104V57.2521H39.1825C38.9482 57.7067 38.6179 58.1328 38.1918 58.5305C37.7727 58.9212 37.2436 59.2372 36.6044 59.4787C35.9723 59.7131 35.2301 59.8303 34.3778 59.8303ZM35.3793 56.9964C36.1534 56.9964 36.8246 56.8437 37.3928 56.5384C37.9609 56.2259 38.3977 55.8139 38.7031 55.3026C39.0156 54.7912 39.1719 54.2337 39.1719 53.63V51.7017C39.0511 51.8011 38.8452 51.8935 38.554 51.9787C38.2699 52.0639 37.9503 52.1385 37.5952 52.2024C37.2401 52.2663 36.8885 52.3232 36.5405 52.3729C36.1925 52.4226 35.8906 52.4652 35.6349 52.5007C35.0597 52.5788 34.5447 52.7067 34.0902 52.8842C33.6357 53.0618 33.277 53.3104 33.0142 53.63C32.7514 53.9425 32.62 54.3473 32.62 54.8445C32.62 55.5547 32.8793 56.0909 33.3977 56.4531C33.9162 56.8153 34.5767 56.9964 35.3793 56.9964ZM46.8956 59.5V43.1364H50.6349V45.8636H50.8054C51.1037 44.919 51.6151 44.1911 52.3395 43.6797C53.071 43.1612 53.9055 42.902 54.843 42.902C55.0561 42.902 55.294 42.9126 55.5568 42.9339C55.8267 42.9482 56.0504 42.973 56.228 43.0085V46.5561C56.0646 46.4993 55.8054 46.4496 55.4503 46.407C55.1023 46.3572 54.7649 46.3324 54.4382 46.3324C53.7351 46.3324 53.103 46.4851 52.5419 46.7905C51.9879 47.0888 51.5511 47.5043 51.2315 48.0369C50.9119 48.5696 50.7521 49.1839 50.7521 49.88V59.5H46.8956ZM62.3058 54.3651L62.2951 49.7095H62.913L68.7937 43.1364H73.3001L66.0664 51.1903H65.2674L62.3058 54.3651ZM58.7901 59.5V37.6818H62.6467V59.5H58.7901ZM69.06 59.5L63.7333 52.0533L66.3327 49.3366L73.6729 59.5H69.06ZM82.4407 59.8196C80.8001 59.8196 79.3832 59.4787 78.19 58.7969C77.0039 58.108 76.0913 57.1349 75.4521 55.8778C74.8129 54.6136 74.4933 53.1257 74.4933 51.4141C74.4933 49.7308 74.8129 48.2536 75.4521 46.9822C76.0984 45.7038 77.0004 44.7095 78.158 43.9993C79.3157 43.282 80.6758 42.9233 82.2383 42.9233C83.2468 42.9233 84.1985 43.0866 85.0934 43.4134C85.9954 43.733 86.7908 44.2301 87.4798 44.9048C88.1758 45.5795 88.7227 46.4389 89.1204 47.483C89.5181 48.5199 89.717 49.7557 89.717 51.1903V52.3729H76.3043V49.7734H86.0202C86.0131 49.0348 85.8533 48.3778 85.5408 47.8026C85.2283 47.2202 84.7915 46.7621 84.2305 46.4283C83.6765 46.0945 83.0302 45.9276 82.2915 45.9276C81.5032 45.9276 80.8107 46.1193 80.2141 46.5028C79.6175 46.8793 79.1523 47.3764 78.8185 47.9943C78.4918 48.6051 78.3249 49.2763 78.3178 50.0078V52.277C78.3178 53.2287 78.4918 54.0455 78.8398 54.7273C79.1879 55.402 79.6744 55.9205 80.2994 56.2827C80.9244 56.6378 81.6559 56.8153 82.494 56.8153C83.055 56.8153 83.5629 56.7372 84.0174 56.581C84.4719 56.4176 84.8661 56.1797 85.1999 55.8672C85.5337 55.5547 85.7859 55.1676 85.9563 54.706L89.5572 55.1108C89.3299 56.0625 88.8967 56.8935 88.2575 57.6037C87.6254 58.3068 86.8157 58.8537 85.8285 59.2443C84.8413 59.6278 83.712 59.8196 82.4407 59.8196ZM101.151 43.1364V46.1193H91.7438V43.1364H101.151ZM94.0662 39.2159H97.9228V54.5781C97.9228 55.0966 98.0009 55.4943 98.1571 55.7713C98.3205 56.0412 98.5336 56.2259 98.7963 56.3253C99.0591 56.4247 99.3503 56.4744 99.6699 56.4744C99.9114 56.4744 100.132 56.4567 100.33 56.4212C100.536 56.3857 100.693 56.3537 100.799 56.3253L101.449 59.3402C101.243 59.4112 100.948 59.4893 100.565 59.5746C100.188 59.6598 99.7267 59.7095 99.1799 59.7237C98.214 59.7521 97.3439 59.6065 96.5698 59.2869C95.7956 58.9602 95.1813 58.456 94.7267 57.7741C94.2793 57.0923 94.0591 56.2401 94.0662 55.2173V39.2159ZM106.446 36.9545L112.258 46.3338H112.434L118.247 36.9545H121.461L114.372 48.2273L121.461 59.5H118.247L112.434 50.2969H112.258L106.446 59.5H103.231L110.497 48.2273L103.231 36.9545H106.446ZM130.653 59.8523C129.068 59.8523 127.703 59.478 126.558 58.7294C125.413 57.9808 124.533 56.9497 123.916 55.636C123.3 54.3223 122.991 52.8215 122.991 51.1335C122.991 49.4162 123.307 47.9007 123.938 46.587C124.577 45.266 125.465 44.2348 126.602 43.4936C127.747 42.745 129.083 42.3707 130.609 42.3707C131.798 42.3707 132.87 42.5909 133.824 43.0312C134.778 43.4716 135.56 44.0881 136.169 44.8807C136.778 45.6733 137.156 46.598 137.303 47.6548H134.705C134.506 46.8842 134.066 46.2017 133.384 45.6072C132.708 45.0054 131.798 44.7045 130.653 44.7045C129.641 44.7045 128.753 44.9687 127.989 45.4972C127.233 46.0182 126.643 46.7558 126.217 47.7099C125.799 48.6566 125.589 49.7685 125.589 51.0455C125.589 52.3518 125.795 53.4893 126.206 54.4581C126.624 55.4268 127.211 56.1791 127.967 56.7148C128.731 57.2506 129.626 57.5185 130.653 57.5185C131.329 57.5185 131.941 57.401 132.492 57.1662C133.042 56.9313 133.508 56.5938 133.89 56.1534C134.272 55.7131 134.543 55.1847 134.705 54.5682H137.303C137.156 55.5663 136.792 56.4653 136.213 57.2653C135.64 58.0579 134.881 58.689 133.934 59.1587C132.995 59.6211 131.901 59.8523 130.653 59.8523ZM148.19 59.8523C146.561 59.8523 145.155 59.4927 143.974 58.7734C142.799 58.0469 141.893 57.0341 141.255 55.7351C140.623 54.4287 140.308 52.9096 140.308 51.1776C140.308 49.4455 140.623 47.919 141.255 46.598C141.893 45.2696 142.781 44.2348 143.919 43.4936C145.064 42.745 146.399 42.3707 147.926 42.3707C148.806 42.3707 149.676 42.5175 150.535 42.8111C151.393 43.1046 152.175 43.5817 152.88 44.2422C153.584 44.8954 154.146 45.7614 154.564 46.8402C154.982 47.919 155.191 49.2474 155.191 50.8253V51.9261H142.157V49.6804H152.549C152.549 48.7263 152.359 47.875 151.977 47.1264C151.603 46.3778 151.067 45.787 150.37 45.354C149.68 44.921 148.865 44.7045 147.926 44.7045C146.891 44.7045 145.996 44.9614 145.24 45.4751C144.491 45.9815 143.915 46.642 143.511 47.4567C143.108 48.2713 142.906 49.1446 142.906 50.0767V51.5739C142.906 52.8509 143.126 53.9334 143.566 54.8214C144.014 55.7021 144.634 56.3736 145.427 56.8359C146.219 57.291 147.141 57.5185 148.19 57.5185C148.873 57.5185 149.489 57.4231 150.039 57.2322C150.597 57.0341 151.078 56.7405 151.482 56.3516C151.885 55.9553 152.197 55.4635 152.417 54.8764L154.927 55.581C154.663 56.4323 154.219 57.1809 153.595 57.8267C152.971 58.4652 152.201 58.9643 151.283 59.3239C150.366 59.6761 149.335 59.8523 148.19 59.8523ZM161.741 36.9545V59.5H159.143V36.9545H161.741ZM169.098 36.9545V59.5H166.5V36.9545H169.098Z" fill="#525354"/>
</svg>
