<svg width="23" height="23" viewBox="0 0 23 23" fill="none" xmlns="http://www.w3.org/2000/svg">
<path d="M0 18.5519C0 20.7288 1.59603 22.5 3.55724 22.5H10.2937C10.6989 22.5 11.0269 22.1357 11.0269 21.6863C11.0269 21.4615 10.9447 21.258 10.8119 21.1107C10.6793 20.9636 10.4962 20.8726 10.2937 20.8726H3.55724C2.40443 20.8726 1.46643 19.8316 1.46643 18.5519V4.4481C1.46643 3.16835 2.40443 2.12739 3.55724 2.12739H13.442C14.5956 2.12739 15.5336 3.16835 15.5336 4.4481V15.0571C15.5336 15.2819 15.6156 15.4853 15.7483 15.6325C15.8809 15.7798 16.0642 15.8708 16.2668 15.8708C16.6721 15.8708 17 15.5065 17 15.0571V4.4481C17 2.27122 15.404 0.5 13.442 0.5H3.55724C1.59603 0.5 0 2.27122 0 4.4481V18.5519Z" fill="#F27F18"/>
<path d="M11.0351 9.53294H4.25644C3.77004 9.53294 3.37645 9.90797 3.37645 10.3705C3.37645 10.8331 3.77004 11.2081 4.25644 11.2081H11.0351C11.5215 11.2081 11.9151 10.8331 11.9151 10.3705C11.9151 9.90797 11.5215 9.53294 11.0351 9.53294ZM11.0351 5.5H4.25644C3.77004 5.5 3.37645 5.87503 3.37645 6.33759C3.37645 6.80014 3.77004 7.17518 4.25644 7.17518H11.0351C11.5215 7.17518 11.9151 6.80014 11.9151 6.33759C11.9151 5.87503 11.5215 5.5 11.0351 5.5ZM11.0351 13.5659H4.25644C3.77004 13.5659 3.37645 13.9409 3.37645 14.4035C3.37645 14.866 3.77004 15.241 4.25644 15.241H11.0351C11.5215 15.241 11.9151 14.866 11.9151 14.4035C11.9151 13.9409 11.5215 13.5659 11.0351 13.5659ZM0.884289 5.5H0.875695C0.390153 5.5 0 5.87503 0 6.33759C0 6.80014 0.398746 7.17518 0.884289 7.17518C1.37069 7.17518 1.76428 6.80014 1.76428 6.33759C1.76428 5.87503 1.37069 5.5 0.884289 5.5ZM0.884289 9.53294H0.875695C0.390153 9.53294 0 9.90797 0 10.3705C0 10.8331 0.398746 11.2081 0.884289 11.2081C1.37069 11.2081 1.76428 10.8331 1.76428 10.3705C1.76428 9.90797 1.37069 9.53294 0.884289 9.53294ZM0.884289 13.5659H0.875695C0.390153 13.5659 0 13.9409 0 14.4035C0 14.866 0.398746 15.241 0.884289 15.241C1.37069 15.241 1.76428 14.866 1.76428 14.4035C1.76428 13.9409 1.37069 13.5659 0.884289 13.5659ZM12.9408 16.2516C12.7925 16.4015 12.698 16.6007 12.698 16.823V18.4053H11.0351C10.802 18.4053 10.5934 18.4951 10.436 18.6357C10.2644 18.7907 10.1557 19.0024 10.1551 19.2429C10.1551 19.7055 10.5487 20.0805 11.0351 20.0805H12.698V21.6624C12.698 22.125 13.0916 22.5 13.578 22.5C14.0644 22.5 14.458 22.125 14.458 21.6624V20.0805H16.12C16.6064 20.0805 17 19.7055 17 19.2429C17 18.7803 16.6064 18.4053 16.12 18.4053H14.458V16.823C14.458 16.3604 14.0644 15.9854 13.578 15.9854C13.3256 15.9859 13.1035 16.0889 12.9408 16.2516Z" fill="#F27F18"/>
</svg>
