<svg width="28" height="21" viewBox="0 0 28 21" fill="none" xmlns="http://www.w3.org/2000/svg">
<path d="M6.5 5.25C6.5 5.05109 6.60535 4.86032 6.79289 4.71967C6.98042 4.57902 7.23478 4.5 7.49999 4.5H11.5C11.7652 4.5 12.0196 4.57902 12.2071 4.71967C12.3946 4.86032 12.5 5.05109 12.5 5.25C12.5 5.44891 12.3946 5.63968 12.2071 5.78033C12.0196 5.92098 11.7652 6 11.5 6H7.49999C7.23478 6 6.98042 5.92098 6.79289 5.78033C6.60535 5.63968 6.5 5.44891 6.5 5.25ZM14.5 7.5H7.49999C7.23478 7.5 6.98042 7.57902 6.79289 7.71967C6.60535 7.86032 6.5 8.05109 6.5 8.25C6.5 8.44891 6.60535 8.63968 6.79289 8.78033C6.98042 8.92098 7.23478 9 7.49999 9H14.5C14.7652 9 15.0196 8.92098 15.2071 8.78033C15.3946 8.63968 15.5 8.44891 15.5 8.25C15.5 8.05109 15.3946 7.86032 15.2071 7.71967C15.0196 7.57902 14.7652 7.5 14.5 7.5ZM14.5 10.5H7.49999C7.23478 10.5 6.98042 10.579 6.79289 10.7197C6.60535 10.8603 6.5 11.0511 6.5 11.25C6.5 11.4489 6.60535 11.6397 6.79289 11.7803C6.98042 11.921 7.23478 12 7.49999 12H14.5C14.7652 12 15.0196 11.921 15.2071 11.7803C15.3946 11.6397 15.5 11.4489 15.5 11.25C15.5 11.0511 15.3946 10.8603 15.2071 10.7197C15.0196 10.579 14.7652 10.5 14.5 10.5ZM27.5 4.5C27.5025 5.22043 27.2738 5.93073 26.8331 6.57087C26.3924 7.21102 25.7527 7.76218 24.9681 8.17779C24.1834 8.59339 23.277 8.86122 22.3252 8.95865C21.3734 9.05607 20.4044 8.98022 19.5 8.7375V18.75C19.5 19.3467 19.1839 19.919 18.6213 20.341C18.0587 20.7629 17.2956 21 16.5 21H3.5C2.70435 21 1.94129 20.7629 1.37868 20.341C0.81607 19.919 0.5 19.3467 0.5 18.75V17.25C0.5 17.0511 0.605357 16.8603 0.792893 16.7197C0.980429 16.579 1.23478 16.5 1.5 16.5H2.5V3C2.5 2.20435 2.92143 1.44129 3.67157 0.87868C4.42172 0.316071 5.43913 0 6.5 0H18.5C18.6576 0.00111929 18.8126 0.0306635 18.9519 0.0861399C19.0911 0.141616 19.2105 0.221397 19.3 0.31875C20.2091 0.0476883 21.193 -0.0521663 22.1655 0.0279204C23.1381 0.108007 24.0696 0.365595 24.8787 0.778154C25.6878 1.19071 26.3497 1.74567 26.8067 2.39449C27.2637 3.04331 27.5017 3.76623 27.5 4.5ZM3.5 19.5H13.684C13.5656 19.2598 13.5033 19.0061 13.5 18.75V18H2.5V18.75C2.5 18.9489 2.60536 19.1397 2.79289 19.2803C2.98043 19.421 3.23478 19.5 3.5 19.5ZM17.5 7.845C16.9117 7.45225 16.433 6.97607 16.0912 6.44391C15.7494 5.91175 15.5515 5.33413 15.5087 4.74432C15.466 4.15452 15.5793 3.56421 15.8421 3.00739C16.1049 2.45058 16.512 1.93827 17.04 1.5H6.5C5.96956 1.5 5.46086 1.65804 5.08578 1.93934C4.71071 2.22064 4.5 2.60218 4.5 3V16.5H14.5C14.7652 16.5 15.0196 16.579 15.2071 16.7197C15.3946 16.8603 15.5 17.0511 15.5 17.25V18.75C15.5 18.9489 15.6053 19.1397 15.7929 19.2803C15.9804 19.421 16.2348 19.5 16.5 19.5C16.7652 19.5 17.0196 19.421 17.2071 19.2803C17.3946 19.1397 17.5 18.9489 17.5 18.75V7.845ZM25.5 4.5C25.5 3.90666 25.2654 3.32664 24.8259 2.83329C24.3863 2.33994 23.7616 1.95542 23.0307 1.72836C22.2998 1.5013 21.4955 1.44189 20.7196 1.55764C19.9437 1.6734 19.231 1.95912 18.6716 2.37868C18.1122 2.79824 17.7312 3.33279 17.5768 3.91473C17.4225 4.49667 17.5017 5.09987 17.8045 5.64805C18.1072 6.19623 18.6199 6.66476 19.2777 6.99441C19.9355 7.32405 20.7089 7.5 21.5 7.5C22.5608 7.5 23.5783 7.18393 24.3284 6.62132C25.0786 6.05871 25.5 5.29565 25.5 4.5ZM23.5 3.75H22.5C22.5 3.55109 22.3946 3.36032 22.2071 3.21967C22.0196 3.07902 21.7652 3 21.5 3C21.2348 3 20.9804 3.07902 20.7929 3.21967C20.6053 3.36032 20.5 3.55109 20.5 3.75V4.5C20.5 4.69891 20.6053 4.88968 20.7929 5.03033C20.9804 5.17098 21.2348 5.25 21.5 5.25H23.5C23.7652 5.25 24.0196 5.17098 24.2071 5.03033C24.3946 4.88968 24.5 4.69891 24.5 4.5C24.5 4.30109 24.3946 4.11032 24.2071 3.96967C24.0196 3.82902 23.7652 3.75 23.5 3.75Z" fill="#1985F1"/>
</svg>
