<svg width="17" height="20" viewBox="0 0 17 20" fill="none" xmlns="http://www.w3.org/2000/svg">
<path d="M16.2834 5.31403L11.7663 0.941688C11.4916 0.674448 11.1167 0.52227 10.7307 0.52227L2.22358 0.5C1.19174 0.5 0.352905 1.33141 0.352905 2.35583V17.6405C0.352905 18.6463 1.21772 19.5 2.24214 19.5H14.8247C15.8305 19.5 16.6471 18.6649 16.6471 17.6367V6.20111C16.6471 5.85593 16.5172 5.54044 16.2834 5.31403ZM11.7477 2.99053L14.0823 5.24722H12.1523C11.937 5.24722 11.7477 5.08019 11.7477 4.8909V2.99053ZM14.8247 18.0153H2.24214C2.03429 18.0153 1.83757 17.8335 1.83757 17.6367V2.35583C1.83757 2.15911 2.01944 1.98466 2.22358 1.98466L10.263 2.00694V4.8909C10.263 5.90418 11.1093 6.73188 12.1523 6.73188H15.1624V17.6367C15.1624 17.8223 15.0362 18.0153 14.8247 18.0153Z" fill="#1985F1"/>
<path d="M3.58191 10.4064C3.58191 10.8147 3.91596 11.1487 4.32424 11.1487H10.8197C11.2279 11.1487 11.562 10.8147 11.562 10.4064C11.562 9.99811 11.2279 9.66406 10.8197 9.66406H4.32424C3.91596 9.66406 3.58191 9.99811 3.58191 10.4064Z" fill="#1985F1"/>
<path d="M4.28713 8.17949H8.59266C9.00094 8.17949 9.33499 7.84544 9.33499 7.43716C9.33499 7.02887 9.00094 6.69482 8.59266 6.69482H4.28713C3.87885 6.69482 3.5448 7.02887 3.5448 7.43716C3.5448 7.84544 3.87885 8.17949 4.28713 8.17949Z" fill="#1985F1"/>
<path d="M12.6755 12.6333H4.32424C3.91596 12.6333 3.58191 12.9674 3.58191 13.3756C3.58191 13.7839 3.91596 14.118 4.32424 14.118H12.6755C13.0838 14.118 13.4178 13.7839 13.4178 13.3756C13.4178 12.9674 13.0838 12.6333 12.6755 12.6333Z" fill="#1985F1"/>
</svg>
